<?xml version="1.0" standalone="no"?>
<!DOCTYPE svg PUBLIC "-//W3C//DTD SVG 20010904//EN"
 "http://www.w3.org/TR/2001/REC-SVG-20010904/DTD/svg10.dtd">
<svg version="1.0" xmlns="http://www.w3.org/2000/svg"
 width="960.000000pt" height="960.000000pt" viewBox="0 0 960.000000 960.000000"
 preserveAspectRatio="xMidYMid meet">
<metadata>
Created by potrace 1.14, written by Peter Selinger 2001-2017
</metadata>
<g transform="translate(0.000000,960.000000) scale(0.100000,-0.100000)"
fill="#000000" stroke="none">
<path d="M2138 9595 c-1 -2 -22 -6 -46 -10 -23 -3 -60 -12 -82 -20 -22 -8 -40
-12 -40 -10 0 5 -129 -61 -161 -83 -66 -44 -86 -60 -124 -97 -124 -123 -200
-265 -233 -435 -9 -44 -9 -8220 -1 -8275 14 -91 102 -301 131 -313 4 -2 8 -9
8 -14 0 -12 4 -17 81 -96 60 -61 139 -122 186 -143 18 -7 33 -17 33 -21 0 -5
8 -8 18 -8 10 0 22 -4 27 -9 6 -6 48 -20 95 -32 111 -30 353 -33 397 -6 10 6
58 18 81 19 6 1 12 5 12 10 0 4 7 8 15 8 23 0 102 44 191 105 73 51 165 159
216 255 31 57 66 146 69 175 1 6 5 18 10 27 5 9 11 56 14 104 2 47 6 88 9 91
2 2 0 18 -4 34 -5 17 -5 31 1 35 5 3 7 10 3 15 -8 13 -9 107 -2 115 4 3 2 18
-2 34 -4 16 -5 31 -2 35 5 5 6 85 1 111 -1 5 0 14 1 19 1 6 1 35 0 65 0 30 -1
62 -1 70 1 8 1 29 0 45 -1 63 -1 71 0 95 1 14 1 32 1 40 -1 8 1 52 2 98 2 45
0 82 -3 82 -4 0 -3 18 1 40 4 22 4 40 0 40 -4 0 -4 16 0 34 4 19 6 37 3 40 -7
6 -8 105 -1 112 4 3 2 18 -2 34 -4 16 -5 31 -2 35 5 5 6 85 1 111 -1 5 0 14 1
19 1 6 1 35 0 65 0 30 -1 62 -1 70 1 48 1 67 -2 85 -2 11 -1 32 3 46 4 15 4
32 0 39 -5 7 -5 22 -1 34 5 11 5 35 1 53 -5 18 -4 35 0 38 4 3 4 21 0 40 -4
19 -5 35 -1 35 7 0 5 95 -3 115 -2 7 -2 16 1 19 4 3 5 32 4 63 -1 32 -2 65 -2
73 1 48 1 67 -2 85 -2 11 -1 32 3 46 4 15 4 32 0 39 -5 7 -5 22 -1 34 5 11 5
34 1 52 -4 18 -4 38 0 44 4 7 4 25 0 41 -5 15 -5 30 -2 34 5 5 6 85 1 111 -1
5 0 14 1 19 1 6 1 35 0 65 0 30 -1 62 -1 70 1 48 1 67 -2 85 -2 11 -1 32 3 46
4 15 4 32 0 39 -5 7 -5 22 -1 34 5 11 5 35 1 53 -5 18 -4 35 0 38 4 3 4 21 0
40 -4 19 -5 35 -1 35 7 0 5 95 -3 115 -2 7 -2 16 1 19 4 3 5 32 4 63 -1 32 -2
65 -2 73 1 8 1 29 0 45 -1 62 -1 71 0 95 0 14 1 36 1 50 1 14 2 36 3 50 1 14
-1 39 -4 56 -4 18 -3 38 1 44 4 7 4 26 0 41 -5 16 -5 31 0 34 5 3 5 18 1 33
-5 15 -5 36 -1 47 4 11 4 32 -1 47 -4 15 -4 30 1 33 4 3 4 20 0 39 -4 19 -4
40 0 46 4 7 4 26 0 41 -5 16 -5 31 0 34 5 3 5 18 1 33 -5 15 -5 36 -1 47 4 11
4 32 0 46 -4 15 -4 32 0 39 4 7 4 26 0 41 -5 16 -5 31 0 34 5 3 5 18 1 33 -5
15 -5 36 -1 47 4 11 4 29 0 41 -5 11 -4 27 0 34 5 8 6 18 4 22 -8 12 -9 106
-2 114 4 3 2 18 -2 34 -4 16 -5 31 -2 35 5 5 6 85 1 111 -1 5 0 14 1 19 1 6 1
35 0 65 0 30 -1 62 -1 70 1 8 1 29 0 45 -1 63 -1 71 0 95 1 14 1 32 1 40 -1 8
1 52 2 98 2 45 0 82 -3 82 -4 0 -3 18 1 40 4 22 4 40 0 40 -4 0 -5 15 -1 33 4
17 4 44 0 58 -3 15 -3 32 1 39 4 7 4 27 0 45 -4 18 -4 39 0 45 4 7 4 26 0 41
-5 16 -5 31 0 34 5 3 5 18 1 33 -5 15 -5 36 -1 47 4 11 4 32 -1 47 -4 15 -4
30 1 33 4 3 4 20 0 39 -4 19 -4 40 0 46 4 7 4 26 0 41 -5 16 -5 31 0 34 5 3 5
18 1 33 -5 15 -5 36 -1 47 4 11 4 32 -1 47 -4 15 -4 30 1 33 4 3 4 20 0 39 -4
19 -4 40 0 46 4 7 4 26 0 41 -5 16 -5 31 0 34 5 3 5 18 1 33 -5 15 -5 36 -1
47 4 11 4 32 -1 47 -4 15 -4 30 1 33 4 3 4 20 0 39 -4 19 -4 40 0 46 4 7 4 26
0 41 -5 16 -5 31 0 34 5 3 5 18 1 33 -5 15 -5 36 -1 47 4 11 4 32 0 46 -4 15
-4 32 0 39 4 7 4 26 0 41 -5 16 -5 31 0 34 5 3 5 18 1 33 -5 15 -5 36 -1 47 4
11 4 29 0 41 -5 11 -4 27 0 34 5 8 6 18 4 22 -8 12 -9 106 -2 114 4 3 2 18 -2
34 -4 16 -5 31 -2 35 5 5 6 85 1 111 -1 5 0 14 1 19 1 6 1 35 0 65 0 30 -1 62
-1 70 1 8 1 29 0 45 -1 63 -1 71 0 95 1 14 1 32 1 40 -1 8 1 52 2 98 2 45 1
82 -2 82 -3 0 -5 39 -6 88 -1 85 -34 246 -55 266 -5 6 -9 18 -9 28 0 10 -3 18
-8 18 -4 0 -14 15 -21 33 -36 81 -169 229 -257 284 -24 16 -152 79 -179 88
-59 22 -191 43 -272 43 -50 0 -93 -1 -95 -3z"/>
<path d="M4380 9596 c-3 -2 -21 -6 -40 -9 -208 -32 -417 -173 -538 -362 -28
-44 -79 -163 -95 -220 -14 -49 -29 -157 -29 -200 0 -18 13 -142 16 -161 9 -44
59 -182 78 -214 11 -19 30 -51 40 -70 22 -39 26 -43 99 -118 60 -61 139 -122
187 -143 17 -7 32 -17 32 -21 0 -5 8 -8 18 -8 10 0 22 -4 28 -9 5 -6 20 -12
34 -15 14 -3 49 -12 78 -20 53 -15 171 -29 230 -27 41 2 46 2 110 0 29 -1 55
0 58 4 3 3 18 2 32 -2 15 -5 35 -5 46 -1 10 3 35 5 55 3 78 -7 121 -8 121 -1
0 4 12 3 28 -1 15 -5 36 -5 47 -1 11 4 24 5 29 2 14 -8 76 -8 76 0 0 4 12 3
28 -1 15 -5 36 -5 47 -1 11 4 24 5 29 2 15 -8 76 -8 76 1 0 5 5 5 11 1 10 -6
180 -9 204 -4 6 1 15 1 20 0 12 -2 97 -2 111 1 5 1 11 1 14 0 3 -1 37 -4 75
-6 81 -6 97 -8 174 -31 67 -19 194 -84 236 -120 116 -100 181 -180 248 -310
33 -66 84 -188 92 -224 2 -8 11 -42 20 -75 21 -79 34 -147 43 -220 8 -74 7
-362 -2 -430 -3 -27 -8 -64 -11 -82 -25 -190 -132 -452 -240 -593 -81 -105
-203 -204 -295 -240 -19 -7 -39 -17 -45 -21 -21 -14 -163 -41 -240 -45 -44 -2
-81 -4 -82 -4 -9 -5 -74 -2 -79 3 -3 3 -17 2 -30 -3 -13 -5 -25 -6 -28 -2 -5
9 -81 6 -95 -3 -5 -3 -12 -1 -15 4 -4 6 -18 6 -36 1 -18 -5 -32 -5 -36 1 -3 6
-12 6 -22 0 -9 -5 -26 -5 -39 0 -13 5 -25 4 -28 -1 -3 -6 -15 -6 -30 0 -13 5
-27 5 -30 1 -3 -5 -21 -5 -40 -1 -19 4 -37 4 -40 -1 -3 -4 -17 -4 -30 1 -15 6
-27 6 -30 -1 -4 -5 -11 -6 -17 -3 -9 6 -225 8 -255 3 -4 -1 -10 -1 -13 0 -15
6 -130 5 -130 -1 0 -4 -13 -3 -30 2 -17 5 -32 5 -35 0 -3 -6 -16 -5 -29 0 -13
5 -26 7 -28 5 -2 -2 -35 -7 -74 -10 -198 -16 -364 -94 -509 -240 -37 -37 -51
-55 -98 -124 -33 -49 -84 -166 -103 -236 -19 -71 -26 -244 -12 -330 10 -69 56
-198 88 -248 16 -26 30 -51 30 -55 0 -10 45 -64 104 -124 93 -94 200 -160 321
-198 89 -27 95 -29 184 -36 42 -3 79 -7 82 -10 4 -2 10 0 14 5 3 7 15 7 30 1
15 -6 27 -6 30 1 4 5 11 6 17 3 9 -6 225 -8 255 -3 4 1 13 0 18 -1 20 -4 116
0 125 5 5 3 11 1 15 -4 3 -7 15 -7 30 -1 13 5 26 6 29 2 3 -5 30 -5 61 -2 30
3 58 4 61 1 6 -7 112 -3 124 4 6 4 10 2 10 -4 0 -6 11 -6 29 -1 16 4 32 6 35
3 8 -8 85 -8 92 0 3 3 16 2 28 -3 13 -4 29 -4 36 0 8 5 21 5 29 1 9 -5 25 -5
36 -1 11 4 30 4 41 -1 12 -4 24 -5 27 -3 3 3 52 7 108 10 57 2 123 6 147 8 38
4 62 7 152 22 31 5 107 20 140 29 14 3 36 8 50 11 53 10 199 57 285 92 153 61
407 196 471 250 6 5 35 27 65 48 30 21 61 46 70 56 9 10 19 18 23 18 20 0 316
299 316 320 0 4 4 10 9 12 12 4 91 105 91 117 0 5 4 11 9 13 8 3 99 138 145
218 48 81 176 350 176 369 0 6 4 11 8 11 5 0 9 6 9 13 0 6 19 68 43 137 23 69
43 132 45 140 2 8 15 60 29 115 27 108 51 233 61 311 4 27 8 60 11 74 19 118
26 574 11 705 -3 33 -9 83 -13 110 -3 28 -7 61 -8 75 -3 30 -11 74 -38 205
-12 55 -22 107 -23 115 -1 8 -5 22 -8 30 -4 8 -8 24 -10 35 -2 11 -7 27 -10
35 -5 15 -38 125 -43 145 -1 6 -11 34 -23 63 -11 28 -18 52 -15 52 4 0 2 6 -4
13 -6 6 -23 44 -38 82 -57 143 -208 421 -277 510 -4 6 -24 33 -45 61 -145 198
-322 377 -505 511 -40 29 -76 56 -82 60 -54 42 -246 148 -355 195 -19 9 -55
25 -80 36 -42 18 -198 69 -280 92 -62 17 -223 49 -280 55 -30 4 -68 9 -85 12
-36 7 -1539 16 -1545 9z"/>
</g>
</svg>
